<?xml version="1.0" encoding="UTF-8"?>
<svg xmlns="http://www.w3.org/2000/svg" version="1.1" viewBox="0 0 1440 1024">
  <defs>
    <style>
      .cls-1 {
        fill: #077efb;
      }

      .cls-2 {
        fill: #071538;
      }

      .cls-3 {
        fill: #010d3e;
      }

      .cls-4 {
        fill: #015ef9;
      }
    </style>
  </defs>
  <!-- Generator: Adobe Illustrator 28.6.0, SVG Export Plug-In . SVG Version: 1.2.0 Build 709)  -->
  <g>
    <g id="Layer_1">
      <g>
        <g>
          <path class="cls-1" d="M244.6,383.2c16.4-5.1,32.9-3,48.8,2.3,36.3,12,61,45.7,59.5,84.1-.1,3.5.8,6.4,2.6,9.3,5.4,9,10.6,18.2,15.7,27.4,4.1,7.5,1.5,14.8-6.4,17.9-2.1.9-4.5,1.3-6.8,1.5-4.4.4-4.4.3-4.4,4.8v31.7c0,12.9-8.5,21.5-21.4,21.7-6.2,0-12.4,0-18.6.1-4.3.1-6.5,2.5-6.5,6.8,0,7.3,0,14.7,0,22,0,1.5,0,3.1-.4,4.6-2.3,9.1-10.9,14.1-21.1,12-5.7-1.2-11.4-2.9-16.9-4.9-15.3-5.5-28.5-14.8-41.5-24.2-2-1.5-3.7-3.3-5.9-5.3,4.1-3.2,7.8-6,11.3-9,9.8-8.5,18.1-18.3,25-29.3,11.5-18,18.7-37.5,18.9-59.2.1-28.9-10.3-54.2-27.7-76.8-6.3-8.2-13.8-15.4-23.1-20.3-1.8-1-3.5-2.2-5.8-3.6,7.8-6.6,16-10.9,24.9-13.7h0ZM256.9,606.4c9.7,5.6,19.8,10,30.9,12.1,5.5,1.1,8-1.1,8.1-6.6,0-7.2,0-14.4,0-21.7.2-10,7.2-17.2,17.2-17.4,6.2-.2,12.4,0,18.7-.1,7.1,0,10.6-3.7,10.6-10.8v-35.7c0-7.7,3-10.8,10.8-11.3,1.8-.1,3.6-.2,5.3-.5,3.1-.5,3.6-1.4,2-4.2-4.9-8.8-9.7-17.7-15.1-26.3-2.8-4.6-3.9-9.1-3.8-14.4.5-26.3-10-47.5-31.4-62.8-17.2-12.3-36.6-16.6-57.5-13.7-3.7.5-7.3,2.2-11.3,3.4,29.2,27.5,46.1,60.2,46.2,100,.2,40.2-19.4,71.5-48,98.8,6,3.8,11.5,7.6,17.3,11h0Z"/>
          <path class="cls-2" d="M238.1,448.9h-24.7c-1.7,0-3,1.3-3,3s1.3,3,3,3h24.7c1.7,0,3-1.3,3-3s-1.3-3-3-3Z"/>
          <path class="cls-2" d="M240.4,456.2c2.6,0,4.7-2.1,4.7-4.7s-2.1-4.7-4.7-4.7-4.7,2.1-4.7,4.7,2.1,4.7,4.7,4.7Z"/>
          <path class="cls-2" d="M230.1,481.5h-24.7c-1.7,0-3,1.3-3,3s1.3,3,3,3h24.7c1.7,0,3-1.3,3-3s-1.3-3-3-3Z"/>
          <path class="cls-2" d="M230.4,488.8c2.6,0,4.7-2.1,4.7-4.7s-2.1-4.7-4.7-4.7-4.7,2.1-4.7,4.7,2.1,4.7,4.7,4.7Z"/>
          <path class="cls-2" d="M228.8,546.8h-11.4c-1.7,0-3,1.3-3,3s1.3,3,3,3h11.4c1.7,0,3-1.3,3-3s-1.3-3-3-3Z"/>
          <path class="cls-2" d="M231.8,554.2c2.6,0,4.7-2.1,4.7-4.7s-2.1-4.7-4.7-4.7-4.7,2.1-4.7,4.7,2.1,4.7,4.7,4.7Z"/>
          <path class="cls-2" d="M233.4,514.2h-27.3c-1.7,0-3,1.3-3,3s1.3,3,3,3h27.3c1.7,0,3-1.3,3-3s-1.3-3-3-3Z"/>
          <path class="cls-1" d="M233.1,514.2h18.9c.2,0,.4.2.4.4v5.2c0,.2-.2.4-.4.4h-18.9v-6Z"/>
          <path class="cls-1" d="M251.8,521.5c2.6,0,4.7-2.1,4.7-4.7s-2.1-4.7-4.7-4.7-4.7,2.1-4.7,4.7,2.1,4.7,4.7,4.7Z"/>
          <path class="cls-2" d="M238.1,530.8h-27.3c-1.7,0-3,1.3-3,3s1.3,3,3,3h27.3c1.7,0,3-1.3,3-3s-1.3-3-3-3Z"/>
          <path class="cls-1" d="M233.1,530.8h23.6c.2,0,.4.2.4.4v5.2c0,.2-.2.4-.4.4h-23.6v-6Z"/>
          <path class="cls-1" d="M256.4,538.2c2.6,0,4.7-2.1,4.7-4.7s-2.1-4.7-4.7-4.7-4.7,2.1-4.7,4.7,2.1,4.7,4.7,4.7Z"/>
          <path class="cls-2" d="M232.8,498.2h-27.3c-1.7,0-3,1.3-3,3s1.3,3,3,3h27.3c1.7,0,3-1.3,3-3s-1.3-3-3-3Z"/>
          <path class="cls-1" d="M228.4,498.2h33.6c.2,0,.4.2.4.4v5.2c0,.2-.2.4-.4.4h-33.6v-6Z"/>
          <path class="cls-1" d="M262.4,505.5c2.6,0,4.7-2.1,4.7-4.7s-2.1-4.7-4.7-4.7-4.7,2.1-4.7,4.7,2.1,4.7,4.7,4.7Z"/>
          <path class="cls-2" d="M236.1,465.5h-27.3c-1.7,0-3,1.3-3,3s1.3,3,3,3h27.3c1.7,0,3-1.3,3-3s-1.3-3-3-3Z"/>
          <path class="cls-1" d="M231.8,465.5h24.3c.2,0,.4.2.4.4v5.2c0,.2-.2.4-.4.4h-24.3v-6Z"/>
          <path class="cls-1" d="M255.8,472.8c2.6,0,4.7-2.1,4.7-4.7s-2.1-4.7-4.7-4.7-4.7,2.1-4.7,4.7,2.1,4.7,4.7,4.7Z"/>
          <path class="cls-2" d="M242.1,397.3c-2.3,1.5-4,2.7-5.8,3.6-9.3,4.9-16.7,12.1-23.1,20.3-17.5,22.6-27.9,47.9-27.7,76.8,0,21.6,7.4,41.1,18.9,59.2,7,10.9,15.3,20.7,25,29.3,3.5,3,7.2,5.8,11.3,9-2.2,2-3.9,3.8-5.9,5.3-13.1,9.3-26.2,18.7-41.5,24.2-5.5,2-11.2,3.7-16.9,4.9-10.2,2.1-18.8-2.9-21.1-12-.4-1.5-.4-3.1-.4-4.6,0-7.3,0-14.7,0-22,0-4.3-2.3-6.7-6.5-6.8-6.2-.2-12.4,0-18.6-.1-13-.1-21.4-8.7-21.4-21.7v-31.7c0-4.5,0-4.4-4.4-4.8-2.3-.2-4.7-.7-6.8-1.5-7.9-3.2-10.6-10.4-6.4-17.9,5.1-9.2,10.3-18.4,15.7-27.4,1.8-3,2.8-5.8,2.6-9.3-1.4-38.3,23.2-72.1,59.5-84.1,15.9-5.3,32.4-7.4,48.8-2.3,8.9,2.8,17.2,7.1,24.9,13.7h0ZM222.2,595.8c-28.6-27.4-48.2-58.7-48-98.8.2-39.8,17.1-72.5,46.2-100-4-1.2-7.6-2.9-11.3-3.4-20.9-2.9-40.3,1.3-57.5,13.7-21.4,15.3-31.9,36.5-31.4,62.8,0,5.3-1,9.9-3.8,14.4-5.3,8.6-10.1,17.5-15.1,26.3-1.6,2.8-1.1,3.7,2,4.2,1.7.3,3.5.4,5.3.5,7.8.5,10.8,3.6,10.8,11.3v35.7c0,7.1,3.6,10.7,10.6,10.8,6.2,0,12.4,0,18.7.1,10,.3,17,7.4,17.2,17.4.1,7.2,0,14.4,0,21.7,0,5.5,2.6,7.6,8.1,6.6,11-2.1,21.2-6.6,30.9-12.1,5.8-3.3,11.4-7.2,17.3-11h0Z"/>
        </g>
        <g>
          <g>
            <path class="cls-2" d="M430.9,436h48.2c11.8,0,22.2,2.3,31.3,6.9,9.1,4.6,16.2,11,21.3,19.4,5,8.3,7.6,18,7.6,28.9s-2.5,20.6-7.6,28.9c-5,8.3-12.1,14.8-21.3,19.4-9.1,4.6-19.6,6.9-31.3,6.9h-48.2v-110.2ZM478.2,529c8.1,0,15.2-1.5,21.3-4.6,6.1-3.1,10.9-7.5,14.2-13.2,3.3-5.7,5-12.4,5-19.9s-1.7-14.2-5-19.9c-3.3-5.7-8-10.1-14.2-13.2-6.1-3.1-13.3-4.6-21.3-4.6h-26.8v75.6h26.8Z"/>
            <path class="cls-2" d="M573.9,541.9c-6.8-3.7-12.2-8.8-16-15.4-3.8-6.6-5.7-14-5.7-22.3s1.9-15.7,5.7-22.2c3.8-6.5,9.2-11.6,16-15.3,6.8-3.7,14.5-5.5,23-5.5s16.3,1.8,23.2,5.5c6.8,3.7,12.2,8.8,16,15.3,3.8,6.5,5.7,13.9,5.7,22.2s-1.9,15.7-5.7,22.3c-3.8,6.6-9.2,11.7-16,15.4-6.8,3.7-14.5,5.5-23.2,5.5s-16.2-1.8-23-5.5ZM614.8,523.3c4.7-4.8,7.1-11.2,7.1-19.1s-2.4-14.2-7.1-19.1c-4.7-4.8-10.7-7.2-18-7.2s-13.2,2.4-17.9,7.2c-4.7,4.8-7,11.2-7,19.1s2.3,14.2,7,19.1c4.7,4.8,10.6,7.2,17.9,7.2s13.2-2.4,18-7.2Z"/>
            <path class="cls-2" d="M711.2,541.7c-2.3,1.9-5.1,3.3-8.4,4.3-3.3.9-6.8,1.4-10.5,1.4-9.2,0-16.4-2.4-21.4-7.2-5-4.8-7.6-11.9-7.6-21.1v-40.5h-13.9v-15.7h13.9v-19.2h19.7v19.2h22.5v15.7h-22.5v40c0,4.1,1,7.2,3,9.4,2,2.2,4.9,3.2,8.7,3.2s8.1-1.2,11-3.5l5.5,14Z"/>
            <path class="cls-2" d="M776,541.7c-2.3,1.9-5.1,3.3-8.4,4.3-3.3.9-6.8,1.4-10.5,1.4-9.2,0-16.4-2.4-21.4-7.2-5-4.8-7.6-11.9-7.6-21.1v-40.5h-13.9v-15.7h13.9v-19.2h19.7v19.2h22.5v15.7h-22.5v40c0,4.1,1,7.2,3,9.4,2,2.2,4.9,3.2,8.7,3.2s8.1-1.2,11-3.5l5.5,14Z"/>
            <path class="cls-2" d="M804.1,541.9c-6.8-3.7-12.2-8.8-16-15.4-3.8-6.6-5.7-14-5.7-22.3s1.9-15.7,5.7-22.2c3.8-6.5,9.2-11.6,16-15.3,6.8-3.7,14.5-5.5,23-5.5s16.3,1.8,23.2,5.5c6.8,3.7,12.2,8.8,16,15.3,3.8,6.5,5.7,13.9,5.7,22.2s-1.9,15.7-5.7,22.3c-3.8,6.6-9.2,11.7-16,15.4-6.8,3.7-14.5,5.5-23.2,5.5s-16.2-1.8-23-5.5ZM845.1,523.3c4.7-4.8,7.1-11.2,7.1-19.1s-2.4-14.2-7.1-19.1c-4.7-4.8-10.7-7.2-18-7.2s-13.2,2.4-17.9,7.2c-4.7,4.8-7,11.2-7,19.1s2.3,14.2,7,19.1c4.7,4.8,10.6,7.2,17.9,7.2s13.2-2.4,18-7.2Z"/>
            <path class="cls-2" d="M939.6,461.2v18.7c-1.7-.3-3.2-.5-4.6-.5-7.7,0-13.6,2.2-18,6.7-4.3,4.5-6.5,10.9-6.5,19.3v40.8h-19.7v-84.1h18.7v12.3c5.7-8.8,15.6-13.2,29.9-13.2Z"/>
          </g>
          <g>
            <path class="cls-4" d="M1000.1,453.4h-36.5v-17.3h93.5v17.3h-36.5v92.9h-20.5v-92.9Z"/>
            <path class="cls-4" d="M1196.6,462.2l-31,84.1h-18.9l-21.7-58-22,58h-18.9l-30.9-84.1h18.6l22.2,62,23.2-62h16.5l22.7,62.4,22.8-62.4h17.5Z"/>
            <path class="cls-4" d="M1211.1,444.9c-2.4-2.3-3.6-5.1-3.6-8.4s1.2-6.2,3.6-8.4c2.4-2.3,5.4-3.4,9-3.4s6.6,1.1,9,3.2c2.4,2.2,3.6,4.9,3.6,8.1s-1.2,6.4-3.5,8.7-5.4,3.5-9.1,3.5-6.6-1.1-9-3.4ZM1210.1,462.2h19.7v84.1h-19.7v-84.1Z"/>
            <path class="cls-4" d="M1328.9,470.5c6.4,6.2,9.6,15.4,9.6,27.6v48.2h-19.7v-45.7c0-7.3-1.7-12.9-5.2-16.6-3.5-3.7-8.4-5.6-14.8-5.6s-13,2.2-17.2,6.5c-4.2,4.4-6.3,10.6-6.3,18.8v42.5h-19.7v-84.1h18.7v10.9c3.3-3.9,7.3-6.8,12.3-8.8,4.9-2,10.5-3,16.7-3,10.6,0,19.1,3.1,25.5,9.3Z"/>
          </g>
          <g>
            <path class="cls-3" d="M497.2,591.9h-6.9v-3.3h17.6v3.3h-6.9v17.5h-3.8v-17.5Z"/>
            <path class="cls-3" d="M528.8,609.4l-4.2-6.1c-.2,0-.4,0-.8,0h-4.7v6h-3.8v-20.7h8.5c1.8,0,3.4.3,4.7.9,1.3.6,2.4,1.4,3.1,2.5.7,1.1,1.1,2.4,1.1,3.9s-.4,2.9-1.1,4c-.8,1.1-1.8,2-3.3,2.5l4.8,6.8h-4.1ZM527.4,593c-.9-.7-2.1-1.1-3.8-1.1h-4.5v8.3h4.5c1.7,0,2.9-.4,3.8-1.1.9-.7,1.3-1.7,1.3-3.1s-.4-2.3-1.3-3Z"/>
            <path class="cls-3" d="M554.7,604.6h-10.4l-2,4.8h-4l9.3-20.7h3.8l9.3,20.7h-4l-2.1-4.8ZM553.5,601.6l-3.9-9.1-3.9,9.1h7.8Z"/>
            <path class="cls-3" d="M569.7,609c-1.5-.5-2.7-1.1-3.5-1.8l1.3-3c.8.7,1.9,1.2,3.1,1.6,1.2.4,2.5.6,3.7.6s2.7-.2,3.4-.7c.8-.5,1.1-1.1,1.1-2s-.2-1.1-.6-1.5c-.4-.4-1-.7-1.6-.9-.7-.2-1.5-.5-2.7-.7-1.6-.4-2.9-.7-3.8-1.1s-1.8-1-2.5-1.8c-.7-.8-1.1-1.9-1.1-3.2s.3-2.2.9-3.1c.6-.9,1.6-1.7,2.8-2.2,1.3-.6,2.8-.8,4.6-.8s2.5.2,3.7.5,2.3.8,3.2,1.4l-1.2,3c-.9-.5-1.9-.9-2.8-1.2-1-.3-1.9-.4-2.9-.4-1.5,0-2.6.3-3.4.8-.7.5-1.1,1.2-1.1,2s.2,1.1.6,1.4c.4.4,1,.7,1.6.9.7.2,1.5.5,2.7.7,1.5.4,2.8.7,3.8,1.1,1,.4,1.8,1,2.5,1.8.7.8,1.1,1.9,1.1,3.2s-.3,2.2-.9,3.1-1.6,1.7-2.8,2.2c-1.3.6-2.8.8-4.6.8s-3.1-.2-4.6-.7Z"/>
            <path class="cls-3" d="M594.8,608.3c-1.7-.9-3-2.2-4-3.8s-1.4-3.4-1.4-5.5.5-3.9,1.4-5.5c1-1.6,2.3-2.9,4-3.8,1.7-.9,3.6-1.4,5.7-1.4s3.2.3,4.6.9c1.4.6,2.6,1.4,3.5,2.6l-2.5,2.3c-1.5-1.6-3.3-2.4-5.5-2.4s-2.7.3-3.8.9c-1.1.6-2,1.5-2.6,2.6-.6,1.1-.9,2.4-.9,3.8s.3,2.7.9,3.8c.6,1.1,1.5,2,2.6,2.6,1.1.6,2.4.9,3.8.9,2.2,0,4-.8,5.5-2.5l2.5,2.4c-1,1.1-2.2,2-3.6,2.6-1.4.6-3,.9-4.7.9s-4-.5-5.7-1.4Z"/>
            <path class="cls-3" d="M630.4,609.4l-4.2-6.1c-.2,0-.4,0-.8,0h-4.7v6h-3.8v-20.7h8.5c1.8,0,3.4.3,4.7.9,1.3.6,2.4,1.4,3.1,2.5.7,1.1,1.1,2.4,1.1,3.9s-.4,2.9-1.1,4c-.8,1.1-1.8,2-3.3,2.5l4.8,6.8h-4.1ZM629,593c-.9-.7-2.1-1.1-3.8-1.1h-4.5v8.3h4.5c1.7,0,2.9-.4,3.8-1.1.9-.7,1.3-1.7,1.3-3.1s-.4-2.3-1.3-3Z"/>
            <path class="cls-3" d="M642.9,588.7h3.8v20.7h-3.8v-20.7Z"/>
            <path class="cls-3" d="M675.6,588.7l-9,20.7h-3.8l-9.1-20.7h4.2l6.9,16,7-16h3.8Z"/>
            <path class="cls-3" d="M697.7,606.1v3.2h-15.5v-20.7h15.1v3.2h-11.3v5.4h10v3.2h-10v5.7h11.7Z"/>
            <path class="cls-3" d="M773.4,608.3c-1.7-.9-3-2.2-4-3.8s-1.4-3.4-1.4-5.5.5-3.9,1.4-5.5c1-1.6,2.3-2.9,4-3.8,1.7-.9,3.6-1.4,5.7-1.4s3.2.3,4.6.9c1.4.6,2.6,1.4,3.5,2.6l-2.5,2.3c-1.5-1.6-3.3-2.4-5.5-2.4s-2.7.3-3.8.9c-1.1.6-2,1.5-2.6,2.6-.6,1.1-.9,2.4-.9,3.8s.3,2.7.9,3.8c.6,1.1,1.5,2,2.6,2.6,1.1.6,2.4.9,3.8.9,2.2,0,4-.8,5.5-2.5l2.5,2.4c-1,1.1-2.2,2-3.6,2.6-1.4.6-3,.9-4.7.9s-4-.5-5.7-1.4Z"/>
            <path class="cls-3" d="M798.9,608.3c-1.7-.9-3-2.2-4-3.8-1-1.6-1.4-3.4-1.4-5.5s.5-3.8,1.4-5.5c1-1.6,2.3-2.9,4-3.8,1.7-.9,3.6-1.4,5.7-1.4s4,.5,5.7,1.4c1.7.9,3,2.2,4,3.8s1.4,3.4,1.4,5.5-.5,3.9-1.4,5.5-2.3,2.9-4,3.8c-1.7.9-3.6,1.4-5.7,1.4s-4-.5-5.7-1.4ZM808.3,605.4c1.1-.6,2-1.5,2.6-2.6.6-1.1.9-2.4.9-3.7s-.3-2.6-.9-3.7c-.6-1.1-1.5-2-2.6-2.6-1.1-.6-2.3-.9-3.7-.9s-2.6.3-3.7.9c-1.1.6-2,1.5-2.6,2.6-.6,1.1-.9,2.4-.9,3.7s.3,2.6.9,3.7c.6,1.1,1.5,2,2.6,2.6,1.1.6,2.3.9,3.7.9s2.6-.3,3.7-.9Z"/>
            <path class="cls-3" d="M843.3,609.4v-13.7s-6.8,11.4-6.8,11.4h-1.7l-6.8-11.2v13.5h-3.7v-20.7h3.2l8.2,13.7,8.1-13.7h3.2v20.7s-3.6,0-3.6,0Z"/>
            <path class="cls-3" d="M870.2,589.5c1.3.6,2.4,1.4,3.1,2.5.7,1.1,1.1,2.4,1.1,3.9s-.4,2.8-1.1,3.9c-.7,1.1-1.7,2-3.1,2.6-1.3.6-2.9.9-4.7.9h-4.7v6h-3.8v-20.7h8.5c1.8,0,3.4.3,4.7.9ZM869.1,599.1c.9-.7,1.3-1.7,1.3-3s-.4-2.3-1.3-3c-.9-.7-2.1-1.1-3.8-1.1h-4.5v8.2h4.5c1.7,0,2.9-.4,3.8-1.1Z"/>
            <path class="cls-3" d="M896.1,609.4l-4.2-6.1c-.2,0-.4,0-.8,0h-4.7v6h-3.8v-20.7h8.5c1.8,0,3.4.3,4.7.9s2.4,1.4,3.1,2.5c.7,1.1,1.1,2.4,1.1,3.9s-.4,2.9-1.1,4c-.8,1.1-1.8,2-3.3,2.5l4.8,6.8h-4.1ZM894.7,593c-.9-.7-2.1-1.1-3.8-1.1h-4.5v8.3h4.5c1.7,0,2.9-.4,3.8-1.1.9-.7,1.3-1.7,1.3-3.1s-.4-2.3-1.3-3Z"/>
            <path class="cls-3" d="M924.2,606.1v3.2h-15.5v-20.7h15.1v3.2h-11.3v5.4h10v3.2h-10v5.7h11.7Z"/>
            <path class="cls-3" d="M951.3,588.7v20.7h-3.2l-11.4-14v14h-3.8v-20.7h3.2l11.4,14v-14h3.8Z"/>
            <path class="cls-3" d="M961.3,588.7h9c2.2,0,4.2.4,5.9,1.3,1.7.9,3,2.1,4,3.6.9,1.6,1.4,3.4,1.4,5.4s-.5,3.9-1.4,5.4c-.9,1.6-2.3,2.8-4,3.6-1.7.9-3.7,1.3-5.9,1.3h-9v-20.7ZM970.2,606.1c1.5,0,2.9-.3,4-.9,1.2-.6,2-1.4,2.7-2.5.6-1.1.9-2.3.9-3.7s-.3-2.7-.9-3.7c-.6-1.1-1.5-1.9-2.7-2.5-1.2-.6-2.5-.9-4-.9h-5v14.2h5Z"/>
            <path class="cls-3" d="M1005.7,606.1v3.2h-15.5v-20.7h15.1v3.2h-11.3v5.4h10v3.2h-10v5.7h11.7Z"/>
            <path class="cls-3" d="M1090.6,589.5c1.3.6,2.4,1.4,3.1,2.5.7,1.1,1.1,2.4,1.1,3.9s-.4,2.8-1.1,3.9c-.7,1.1-1.7,2-3.1,2.6s-2.9.9-4.7.9h-4.7v6h-3.8v-20.7h8.5c1.8,0,3.4.3,4.7.9ZM1089.6,599.1c.9-.7,1.3-1.7,1.3-3s-.4-2.3-1.3-3-2.1-1.1-3.8-1.1h-4.5v8.2h4.5c1.7,0,2.9-.4,3.8-1.1Z"/>
            <path class="cls-3" d="M1116.6,609.4l-4.2-6.1c-.2,0-.4,0-.8,0h-4.7v6h-3.8v-20.7h8.5c1.8,0,3.4.3,4.7.9s2.4,1.4,3.1,2.5c.7,1.1,1.1,2.4,1.1,3.9s-.4,2.9-1.1,4c-.8,1.1-1.8,2-3.3,2.5l4.8,6.8h-4.1ZM1115.2,593c-.9-.7-2.1-1.1-3.8-1.1h-4.5v8.3h4.5c1.7,0,2.9-.4,3.8-1.1.9-.7,1.3-1.7,1.3-3.1s-.4-2.3-1.3-3Z"/>
            <path class="cls-3" d="M1133,608.3c-1.7-.9-3-2.2-4-3.8-1-1.6-1.4-3.4-1.4-5.5s.5-3.8,1.4-5.5c1-1.6,2.3-2.9,4-3.8,1.7-.9,3.6-1.4,5.7-1.4s4,.5,5.7,1.4c1.7.9,3,2.2,4,3.8,1,1.6,1.4,3.4,1.4,5.5s-.5,3.9-1.4,5.5c-1,1.6-2.3,2.9-4,3.8-1.7.9-3.6,1.4-5.7,1.4s-4-.5-5.7-1.4ZM1142.5,605.4c1.1-.6,2-1.5,2.6-2.6s.9-2.4.9-3.7-.3-2.6-.9-3.7c-.6-1.1-1.5-2-2.6-2.6-1.1-.6-2.3-.9-3.7-.9s-2.6.3-3.7.9c-1.1.6-2,1.5-2.6,2.6-.6,1.1-.9,2.4-.9,3.7s.3,2.6.9,3.7,1.5,2,2.6,2.6c1.1.6,2.3.9,3.7.9s2.6-.3,3.7-.9Z"/>
            <path class="cls-3" d="M1171.6,589.5c1.3.6,2.4,1.4,3.1,2.5.7,1.1,1.1,2.4,1.1,3.9s-.4,2.8-1.1,3.9c-.7,1.1-1.7,2-3.1,2.6s-2.9.9-4.7.9h-4.7v6h-3.8v-20.7h8.5c1.8,0,3.4.3,4.7.9ZM1170.6,599.1c.9-.7,1.3-1.7,1.3-3s-.4-2.3-1.3-3-2.1-1.1-3.8-1.1h-4.5v8.2h4.5c1.7,0,2.9-.4,3.8-1.1Z"/>
            <path class="cls-3" d="M1188.3,608.3c-1.7-.9-3-2.2-4-3.8-1-1.6-1.4-3.4-1.4-5.5s.5-3.8,1.4-5.5c1-1.6,2.3-2.9,4-3.8,1.7-.9,3.6-1.4,5.7-1.4s4,.5,5.7,1.4c1.7.9,3,2.2,4,3.8,1,1.6,1.4,3.4,1.4,5.5s-.5,3.9-1.4,5.5c-1,1.6-2.3,2.9-4,3.8-1.7.9-3.6,1.4-5.7,1.4s-4-.5-5.7-1.4ZM1197.7,605.4c1.1-.6,2-1.5,2.6-2.6s.9-2.4.9-3.7-.3-2.6-.9-3.7c-.6-1.1-1.5-2-2.6-2.6-1.1-.6-2.3-.9-3.7-.9s-2.6.3-3.7.9c-1.1.6-2,1.5-2.6,2.6-.6,1.1-.9,2.4-.9,3.7s.3,2.6.9,3.7,1.5,2,2.6,2.6c1.1.6,2.3.9,3.7.9s2.6-.3,3.7-.9Z"/>
            <path class="cls-3" d="M1232.1,588.7v20.7h-3.2l-11.4-14v14h-3.8v-20.7h3.2l11.4,14v-14h3.8Z"/>
            <path class="cls-3" d="M1257.6,606.1v3.2h-15.5v-20.7h15.1v3.2h-11.3v5.4h10v3.2h-10v5.7h11.7Z"/>
          </g>
          <circle class="cls-4" cx="733.8" cy="599" r="10.6"/>
          <circle class="cls-4" cx="1044.9" cy="599" r="10.6"/>
        </g>
      </g>
    </g>
  </g>
</svg>