<?xml version="1.0" encoding="UTF-8"?>
<svg xmlns="http://www.w3.org/2000/svg" version="1.1" viewBox="0 0 1440 1024">
  <defs>
    <style>
      .cls-1 {
        fill: #077efb;
      }

      .cls-2 {
        fill: #071538;
      }

      .cls-3 {
        fill: #010d3e;
      }

      .cls-4 {
        fill: #015ef9;
      }
    </style>
  </defs>
  <!-- Generator: Adobe Illustrator 28.6.0, SVG Export Plug-In . SVG Version: 1.2.0 Build 709)  -->
  <g>
    <g id="Layer_1">
      <g>
        <g>
          <path class="cls-1" d="M750.4,134.9c32.2-9.9,64.4-5.9,95.6,4.5,71.2,23.5,119.4,89.6,116.7,164.7-.2,6.9,1.6,12.5,5.1,18.3,10.6,17.7,20.8,35.7,30.8,53.8,8.1,14.7,2.9,28.9-12.6,35.1-4.2,1.7-8.8,2.5-13.2,2.9-8.6.8-8.6.6-8.6,9.4v62c0,25.3-16.6,42.2-41.9,42.4-12.2.2-24.4,0-36.5.2-8.4.2-12.7,4.9-12.8,13.3-.1,14.3,0,28.7,0,43.1,0,3-.2,6.2-.9,9.1-4.5,17.8-21.4,27.7-41.3,23.5-11.2-2.3-22.3-5.7-33.1-9.6-30-10.8-55.7-29-81.3-47.4-3.9-2.8-7.3-6.5-11.6-10.3,8-6.3,15.3-11.8,22.1-17.7,19.2-16.7,35.4-35.9,49.1-57.3,22.5-35.3,36.7-73.5,36.9-115.9.2-56.7-20.1-106.2-54.3-150.4-12.4-16.1-26.9-30.1-45.2-39.8-3.6-1.9-6.9-4.3-11.4-7.1,15.2-12.9,31.4-21.4,48.8-26.8h-.2ZM774.5,572.2c18.9,10.9,38.8,19.5,60.4,23.7,10.7,2.1,15.7-2.1,15.8-12.9,0-14.2,0-28.3.2-42.4.3-19.6,14.1-33.6,33.7-34.1,12.2-.3,24.4-.2,36.6-.3,13.8-.1,20.7-7.2,20.7-21.1v-69.8c0-15,5.9-21.1,21.1-22.1,3.5-.2,7-.5,10.4-1,6.1-1,7-2.8,3.9-8.2-9.7-17.2-19.1-34.7-29.6-51.4-5.5-8.9-7.7-17.8-7.5-28.3.9-51.6-19.7-93-61.5-123-33.7-24.2-71.7-32.5-112.6-26.8-7.3,1-14.3,4.3-22.1,6.7,57.1,53.9,90.2,117.9,90.6,195.9.3,78.7-38,140-94,193.6,11.7,7.4,22.5,15,33.9,21.5h0Z"/>
          <path class="cls-2" d="M737.8,263.5h-48.4c-3.2,0-5.9,2.6-5.9,5.9s2.6,5.9,5.9,5.9h48.4c3.2,0,5.9-2.6,5.9-5.9s-2.6-5.9-5.9-5.9Z"/>
          <path class="cls-2" d="M742.3,277.9c5,0,9.1-4.1,9.1-9.1s-4.1-9.1-9.1-9.1-9.1,4.1-9.1,9.1,4.1,9.1,9.1,9.1Z"/>
          <path class="cls-2" d="M722.1,327.5h-48.4c-3.2,0-5.9,2.6-5.9,5.9s2.6,5.9,5.9,5.9h48.4c3.2,0,5.9-2.6,5.9-5.9s-2.6-5.9-5.9-5.9Z"/>
          <path class="cls-2" d="M722.7,341.9c5,0,9.1-4.1,9.1-9.1s-4.1-9.1-9.1-9.1-9.1,4.1-9.1,9.1,4.1,9.1,9.1,9.1Z"/>
          <path class="cls-2" d="M719.5,455.5h-22.2c-3.2,0-5.9,2.6-5.9,5.9s2.6,5.9,5.9,5.9h22.2c3.2,0,5.9-2.6,5.9-5.9s-2.6-5.9-5.9-5.9Z"/>
          <path class="cls-2" d="M725.4,469.8c5,0,9.1-4.1,9.1-9.1s-4.1-9.1-9.1-9.1-9.1,4.1-9.1,9.1,4.1,9.1,9.1,9.1Z"/>
          <path class="cls-2" d="M728.6,391.5h-53.5c-3.2,0-5.9,2.6-5.9,5.9s2.6,5.9,5.9,5.9h53.5c3.2,0,5.9-2.6,5.9-5.9s-2.6-5.9-5.9-5.9Z"/>
          <path class="cls-1" d="M728,391.5h37.1c.4,0,.8.3.8.8v10.2c0,.4-.3.8-.8.8h-37.1v-11.7Z"/>
          <path class="cls-1" d="M764.5,405.8c5,0,9.1-4.1,9.1-9.1s-4.1-9.1-9.1-9.1-9.1,4.1-9.1,9.1,4.1,9.1,9.1,9.1Z"/>
          <path class="cls-2" d="M737.7,424.1h-53.5c-3.2,0-5.9,2.6-5.9,5.9s2.6,5.9,5.9,5.9h53.5c3.2,0,5.9-2.6,5.9-5.9s-2.6-5.9-5.9-5.9Z"/>
          <path class="cls-1" d="M728,424.1h46.2c.4,0,.8.3.8.8v10.2c0,.4-.3.8-.8.8h-46.2v-11.7Z"/>
          <path class="cls-1" d="M773.7,438.5c5,0,9.1-4.1,9.1-9.1s-4.1-9.1-9.1-9.1-9.1,4.1-9.1,9.1,4.1,9.1,9.1,9.1Z"/>
          <path class="cls-2" d="M727.3,360.2h-53.5c-3.2,0-5.9,2.6-5.9,5.9s2.6,5.9,5.9,5.9h53.5c3.2,0,5.9-2.6,5.9-5.9s-2.6-5.9-5.9-5.9Z"/>
          <path class="cls-1" d="M718.8,360.2h65.8c.4,0,.8.3.8.8v10.2c0,.4-.3.8-.8.8h-65.8v-11.7Z"/>
          <path class="cls-1" d="M785.4,374.5c5,0,9.1-4.1,9.1-9.1s-4.1-9.1-9.1-9.1-9.1,4.1-9.1,9.1,4.1,9.1,9.1,9.1Z"/>
          <path class="cls-2" d="M733.8,296.2h-53.5c-3.2,0-5.9,2.6-5.9,5.9s2.6,5.9,5.9,5.9h53.5c3.2,0,5.9-2.6,5.9-5.9s-2.6-5.9-5.9-5.9Z"/>
          <path class="cls-1" d="M725.4,296.2h47.6c.4,0,.8.3.8.8v10.2c0,.4-.3.8-.8.8h-47.6v-11.7Z"/>
          <path class="cls-1" d="M772.3,310.5c5,0,9.1-4.1,9.1-9.1s-4.1-9.1-9.1-9.1-9.1,4.1-9.1,9.1,4.1,9.1,9.1,9.1Z"/>
          <path class="cls-2" d="M745.7,162.5c-4.5,2.8-7.8,5.3-11.4,7.1-18.2,9.7-32.7,23.7-45.2,39.8-34.3,44.2-54.6,93.8-54.3,150.4.2,42.4,14.4,80.6,36.9,115.9,13.6,21.4,29.9,40.6,49.1,57.3,6.9,5.9,14.1,11.3,22.1,17.7-4.3,3.8-7.7,7.5-11.6,10.3-25.7,18.3-51.4,36.6-81.3,47.4-10.8,3.9-21.9,7.3-33.1,9.6-20,4.2-36.8-5.7-41.3-23.5-.8-2.9-.9-6-.9-9.1-.1-14.3,0-28.7,0-43.1,0-8.4-4.4-13.1-12.8-13.3-12.2-.3-24.4-.1-36.5-.2-25.4-.3-41.9-17.1-41.9-42.4v-62c0-8.8,0-8.6-8.6-9.4-4.5-.4-9.1-1.3-13.2-2.9-15.5-6.2-20.7-20.4-12.6-35.1,9.9-18.1,20.1-36.1,30.8-53.8,3.5-5.8,5.4-11.4,5.1-18.3-2.8-75.1,45.5-141.2,116.6-164.7,31.2-10.3,63.4-14.4,95.6-4.5,17.4,5.4,33.6,13.9,48.8,26.8h-.2ZM706.7,551.4c-56-53.6-94.4-114.9-94-193.6.3-78,33.4-142.1,90.6-195.9-7.8-2.4-14.8-5.7-22.1-6.7-40.9-5.7-79,2.6-112.6,26.8-41.9,30-62.5,71.4-61.5,123,.2,10.4-2,19.3-7.5,28.3-10.4,16.8-19.8,34.3-29.6,51.4-3.1,5.5-2.1,7.3,3.9,8.2,3.4.6,6.9.8,10.4,1,15.2.9,21.1,7.1,21.1,22.1v69.8c0,13.9,7,20.9,20.7,21.1,12.2.1,24.4,0,36.6.3,19.6.5,33.4,14.5,33.7,34.1.2,14.2.1,28.3.2,42.4,0,10.8,5.1,15,15.8,12.9,21.6-4.2,41.5-12.8,60.4-23.7,11.4-6.6,22.2-14.1,33.9-21.5h0Z"/>
        </g>
        <g>
          <path class="cls-2" d="M198.2,666.6h56c13.7,0,25.8,2.7,36.4,8,10.6,5.3,18.9,12.8,24.7,22.5s8.8,20.9,8.8,33.6-2.9,23.9-8.8,33.6-14.1,17.2-24.7,22.5c-10.6,5.3-22.8,8-36.4,8h-56v-128.2ZM253.1,774.6c9.4,0,17.7-1.8,24.8-5.4,7.1-3.6,12.6-8.7,16.5-15.4,3.8-6.7,5.8-14.4,5.8-23.2s-1.9-16.5-5.8-23.2c-3.8-6.7-9.3-11.8-16.5-15.4-7.1-3.6-15.4-5.4-24.8-5.4h-31.1v87.9h31.1Z"/>
          <path class="cls-2" d="M364.4,789.6c-7.9-4.3-14.1-10.2-18.6-17.9-4.5-7.6-6.7-16.3-6.7-25.9s2.2-18.2,6.7-25.8c4.5-7.6,10.6-13.5,18.6-17.8,7.9-4.3,16.8-6.4,26.7-6.4s19,2.1,26.9,6.4c7.9,4.3,14.1,10.2,18.6,17.8,4.5,7.6,6.7,16.2,6.7,25.8s-2.2,18.3-6.7,25.9c-4.5,7.6-10.6,13.6-18.6,17.9-7.9,4.3-16.9,6.4-26.9,6.4s-18.8-2.1-26.7-6.4ZM412,768c5.5-5.6,8.2-13,8.2-22.2s-2.7-16.5-8.2-22.2c-5.5-5.6-12.4-8.4-20.9-8.4s-15.4,2.8-20.8,8.4c-5.4,5.6-8.1,13-8.1,22.2s2.7,16.5,8.1,22.2c5.4,5.6,12.4,8.4,20.8,8.4s15.4-2.8,20.9-8.4Z"/>
          <path class="cls-2" d="M524.1,789.4c-2.7,2.2-6,3.8-9.8,4.9-3.8,1.1-7.9,1.6-12.2,1.6-10.7,0-19-2.8-24.9-8.4-5.9-5.6-8.8-13.8-8.8-24.5v-47.1h-16.1v-18.3h16.1v-22.3h22.9v22.3h26.2v18.3h-26.2v46.5c0,4.8,1.2,8.4,3.5,10.9,2.3,2.5,5.7,3.8,10.1,3.8s9.4-1.3,12.8-4l6.4,16.3Z"/>
          <path class="cls-2" d="M599.3,789.4c-2.7,2.2-6,3.8-9.8,4.9-3.8,1.1-7.9,1.6-12.2,1.6-10.7,0-19-2.8-24.9-8.4-5.9-5.6-8.8-13.8-8.8-24.5v-47.1h-16.1v-18.3h16.1v-22.3h22.9v22.3h26.2v18.3h-26.2v46.5c0,4.8,1.2,8.4,3.5,10.9,2.3,2.5,5.7,3.8,10.1,3.8s9.4-1.3,12.8-4l6.4,16.3Z"/>
          <path class="cls-2" d="M632.1,789.6c-7.9-4.3-14.1-10.2-18.6-17.9-4.5-7.6-6.7-16.3-6.7-25.9s2.2-18.2,6.7-25.8c4.5-7.6,10.6-13.5,18.6-17.8,7.9-4.3,16.8-6.4,26.7-6.4s19,2.1,26.9,6.4c7.9,4.3,14.1,10.2,18.6,17.8,4.5,7.6,6.7,16.2,6.7,25.8s-2.2,18.3-6.7,25.9c-4.5,7.6-10.6,13.6-18.6,17.9-7.9,4.3-16.9,6.4-26.9,6.4s-18.8-2.1-26.7-6.4ZM679.7,768c5.5-5.6,8.2-13,8.2-22.2s-2.7-16.5-8.2-22.2c-5.5-5.6-12.4-8.4-20.9-8.4s-15.4,2.8-20.8,8.4c-5.4,5.6-8.1,13-8.1,22.2s2.7,16.5,8.1,22.2c5.4,5.6,12.4,8.4,20.8,8.4s15.4-2.8,20.9-8.4Z"/>
          <path class="cls-2" d="M789.5,695.9v21.8c-2-.4-3.7-.5-5.3-.5-8.9,0-15.9,2.6-20.9,7.8-5,5.2-7.5,12.7-7.5,22.4v47.4h-22.9v-97.8h21.8v14.3c6.6-10.3,18.2-15.4,34.8-15.4Z"/>
        </g>
        <g>
          <path class="cls-4" d="M859.8,686.7h-42.5v-20.1h108.7v20.1h-42.5v108h-23.8v-108Z"/>
          <path class="cls-4" d="M1088.3,697l-36.1,97.8h-22l-25.3-67.4-25.6,67.4h-22l-35.9-97.8h21.6l25.8,72.1,26.9-72.1h19.2l26.4,72.5,26.5-72.5h20.3Z"/>
          <path class="cls-4" d="M1105.2,676.9c-2.8-2.6-4.2-5.9-4.2-9.8s1.4-7.2,4.2-9.8c2.8-2.6,6.3-3.9,10.4-3.9s7.6,1.3,10.4,3.8c2.8,2.5,4.2,5.6,4.2,9.4s-1.4,7.4-4.1,10.2-6.3,4.1-10.5,4.1-7.6-1.3-10.4-3.9ZM1104.1,697h22.9v97.8h-22.9v-97.8Z"/>
          <path class="cls-4" d="M1242.1,706.7c7.4,7.2,11.2,17.9,11.2,32v56h-22.9v-53.1c0-8.5-2-15-6-19.3-4-4.3-9.8-6.5-17.2-6.5s-15.1,2.5-20,7.6c-4.9,5.1-7.3,12.4-7.3,21.9v49.4h-22.9v-97.8h21.8v12.6c3.8-4.5,8.5-7.9,14.3-10.3,5.7-2.3,12.2-3.5,19.4-3.5,12.3,0,22.2,3.6,29.7,10.8Z"/>
        </g>
        <g>
          <path class="cls-3" d="M275.3,847.8h-8v-3.8h20.4v3.8h-8v20.3h-4.5v-20.3Z"/>
          <path class="cls-3" d="M312,868.1l-4.9-7c-.2,0-.5,0-.9,0h-5.4v7h-4.5v-24.1h9.9c2.1,0,3.9.3,5.4,1,1.5.7,2.7,1.7,3.6,3,.8,1.3,1.2,2.8,1.2,4.6s-.4,3.4-1.3,4.7c-.9,1.3-2.1,2.3-3.8,2.9l5.5,7.9h-4.8ZM310.4,849c-1-.8-2.5-1.2-4.4-1.2h-5.2v9.6h5.2c1.9,0,3.4-.4,4.4-1.3,1-.8,1.5-2,1.5-3.6s-.5-2.7-1.5-3.5Z"/>
          <path class="cls-3" d="M342.1,862.5h-12l-2.4,5.6h-4.6l10.8-24.1h4.4l10.9,24.1h-4.7l-2.4-5.6ZM340.6,859l-4.5-10.5-4.5,10.5h9Z"/>
          <path class="cls-3" d="M359.5,867.6c-1.7-.5-3.1-1.2-4.1-2.1l1.5-3.5c1,.8,2.2,1.4,3.6,1.9,1.4.5,2.9.7,4.3.7s3.1-.3,4-.9c.9-.6,1.3-1.3,1.3-2.3s-.2-1.3-.7-1.7c-.5-.4-1.1-.8-1.9-1-.8-.3-1.8-.5-3.1-.9-1.8-.4-3.3-.9-4.5-1.3s-2.1-1.1-2.9-2c-.8-.9-1.2-2.2-1.2-3.8s.4-2.5,1.1-3.6c.7-1.1,1.8-2,3.3-2.6,1.5-.6,3.2-1,5.3-1s2.9.2,4.3.6,2.6.9,3.7,1.6l-1.4,3.5c-1.1-.6-2.2-1.1-3.3-1.4-1.1-.3-2.3-.5-3.3-.5-1.8,0-3.1.3-3.9.9-.9.6-1.3,1.4-1.3,2.4s.2,1.2.7,1.7c.5.4,1.1.8,1.9,1,.8.3,1.8.5,3.1.9,1.8.4,3.3.8,4.4,1.3,1.1.4,2.1,1.1,2.9,2,.8.9,1.2,2.2,1.2,3.7s-.4,2.5-1.1,3.6-1.8,1.9-3.3,2.6c-1.5.6-3.3,1-5.4,1s-3.7-.3-5.4-.8Z"/>
          <path class="cls-3" d="M388.8,866.8c-2-1.1-3.5-2.5-4.6-4.4s-1.7-4-1.7-6.4.6-4.5,1.7-6.4c1.1-1.9,2.7-3.4,4.6-4.4,2-1.1,4.2-1.6,6.6-1.6s3.8.3,5.4,1c1.6.7,3,1.7,4.1,3l-2.9,2.7c-1.7-1.9-3.9-2.8-6.4-2.8s-3.1.4-4.4,1.1c-1.3.7-2.3,1.7-3.1,3-.7,1.3-1.1,2.7-1.1,4.4s.4,3.1,1.1,4.4c.7,1.3,1.8,2.3,3.1,3,1.3.7,2.8,1.1,4.4,1.1,2.5,0,4.7-1,6.4-2.9l2.9,2.8c-1.1,1.3-2.5,2.3-4.1,3-1.6.7-3.4,1-5.4,1s-4.6-.5-6.6-1.6Z"/>
          <path class="cls-3" d="M430.1,868.1l-4.9-7c-.2,0-.5,0-.9,0h-5.4v7h-4.5v-24.1h9.9c2.1,0,3.9.3,5.4,1,1.5.7,2.7,1.7,3.6,3,.8,1.3,1.2,2.8,1.2,4.6s-.4,3.4-1.3,4.7c-.9,1.3-2.1,2.3-3.8,2.9l5.5,7.9h-4.8ZM428.5,849c-1-.8-2.5-1.2-4.4-1.2h-5.2v9.6h5.2c1.9,0,3.4-.4,4.4-1.3,1-.8,1.5-2,1.5-3.6s-.5-2.7-1.5-3.5Z"/>
          <path class="cls-3" d="M444.7,844h4.5v24.1h-4.5v-24.1Z"/>
          <path class="cls-3" d="M482.6,844l-10.5,24.1h-4.4l-10.5-24.1h4.8l8,18.6,8.1-18.6h4.5Z"/>
          <path class="cls-3" d="M508.4,864.3v3.7h-18.1v-24.1h17.6v3.7h-13.1v6.3h11.6v3.7h-11.6v6.6h13.6Z"/>
          <path class="cls-3" d="M596.3,866.8c-2-1.1-3.5-2.5-4.6-4.4s-1.7-4-1.7-6.4.6-4.5,1.7-6.4c1.1-1.9,2.7-3.4,4.6-4.4,2-1.1,4.2-1.6,6.6-1.6s3.8.3,5.4,1c1.6.7,3,1.7,4.1,3l-2.9,2.7c-1.7-1.9-3.9-2.8-6.4-2.8s-3.1.4-4.4,1.1c-1.3.7-2.3,1.7-3.1,3-.7,1.3-1.1,2.7-1.1,4.4s.4,3.1,1.1,4.4c.7,1.3,1.8,2.3,3.1,3,1.3.7,2.8,1.1,4.4,1.1,2.5,0,4.7-1,6.4-2.9l2.9,2.8c-1.1,1.3-2.5,2.3-4.1,3-1.6.7-3.4,1-5.4,1s-4.6-.5-6.6-1.6Z"/>
          <path class="cls-3" d="M626,866.8c-2-1.1-3.5-2.5-4.6-4.4-1.1-1.9-1.7-4-1.7-6.3s.6-4.5,1.7-6.3c1.1-1.9,2.7-3.4,4.6-4.4,2-1.1,4.2-1.6,6.6-1.6s4.7.5,6.6,1.6c2,1.1,3.5,2.5,4.6,4.4s1.7,4,1.7,6.4-.6,4.5-1.7,6.4-2.7,3.4-4.6,4.4c-2,1.1-4.2,1.6-6.6,1.6s-4.7-.5-6.6-1.6ZM637,863.4c1.3-.7,2.3-1.7,3-3,.7-1.3,1.1-2.7,1.1-4.3s-.4-3.1-1.1-4.3c-.7-1.3-1.7-2.3-3-3-1.3-.7-2.7-1.1-4.3-1.1s-3,.4-4.3,1.1c-1.3.7-2.3,1.7-3,3-.7,1.3-1.1,2.7-1.1,4.3s.4,3.1,1.1,4.3c.7,1.3,1.7,2.3,3,3,1.3.7,2.7,1.1,4.3,1.1s3-.4,4.3-1.1Z"/>
          <path class="cls-3" d="M677.6,868.1v-16s-7.9,13.2-7.9,13.2h-2l-7.9-13v15.7h-4.3v-24.1h3.7l9.6,16,9.4-16h3.7v24.1s-4.2,0-4.2,0Z"/>
          <path class="cls-3" d="M708.8,845c1.5.7,2.7,1.7,3.6,3,.8,1.3,1.2,2.8,1.2,4.6s-.4,3.3-1.2,4.6c-.8,1.3-2,2.3-3.6,3-1.5.7-3.4,1-5.4,1h-5.4v6.9h-4.5v-24.1h9.9c2.1,0,3.9.3,5.4,1ZM707.6,856.1c1-.8,1.5-2,1.5-3.5s-.5-2.7-1.5-3.5c-1-.8-2.5-1.2-4.4-1.2h-5.2v9.6h5.2c1.9,0,3.4-.4,4.4-1.2Z"/>
          <path class="cls-3" d="M739,868.1l-4.9-7c-.2,0-.5,0-.9,0h-5.4v7h-4.5v-24.1h9.9c2.1,0,3.9.3,5.5,1s2.7,1.7,3.6,3c.8,1.3,1.2,2.8,1.2,4.6s-.4,3.4-1.3,4.7c-.9,1.3-2.1,2.3-3.8,2.9l5.5,7.9h-4.8ZM737.4,849c-1-.8-2.5-1.2-4.4-1.2h-5.2v9.6h5.2c1.9,0,3.4-.4,4.4-1.3,1-.8,1.5-2,1.5-3.6s-.5-2.7-1.5-3.5Z"/>
          <path class="cls-3" d="M771.6,864.3v3.7h-18.1v-24.1h17.6v3.7h-13.1v6.3h11.6v3.7h-11.6v6.6h13.6Z"/>
          <path class="cls-3" d="M803.1,844v24.1h-3.7l-13.3-16.3v16.3h-4.4v-24.1h3.7l13.3,16.3v-16.3h4.4Z"/>
          <path class="cls-3" d="M814.7,844h10.5c2.6,0,4.8.5,6.8,1.5,2,1,3.5,2.4,4.6,4.2,1.1,1.8,1.7,3.9,1.7,6.3s-.6,4.5-1.7,6.3c-1.1,1.8-2.6,3.2-4.6,4.2-2,1-4.3,1.5-6.8,1.5h-10.5v-24.1ZM825.1,864.3c1.8,0,3.3-.3,4.7-1,1.3-.7,2.4-1.6,3.1-2.9.7-1.2,1.1-2.7,1.1-4.3s-.4-3.1-1.1-4.3c-.7-1.2-1.8-2.2-3.1-2.9-1.3-.7-2.9-1-4.7-1h-5.8v16.5h5.8Z"/>
          <path class="cls-3" d="M866.4,864.3v3.7h-18.1v-24.1h17.6v3.7h-13.1v6.3h11.6v3.7h-11.6v6.6h13.6Z"/>
          <path class="cls-3" d="M965.1,845c1.5.7,2.7,1.7,3.6,3,.8,1.3,1.2,2.8,1.2,4.6s-.4,3.3-1.2,4.6c-.8,1.3-2,2.3-3.6,3s-3.4,1-5.5,1h-5.4v6.9h-4.5v-24.1h9.9c2.1,0,3.9.3,5.5,1ZM963.9,856.1c1-.8,1.5-2,1.5-3.5s-.5-2.7-1.5-3.5-2.5-1.2-4.4-1.2h-5.2v9.6h5.2c1.9,0,3.4-.4,4.4-1.2Z"/>
          <path class="cls-3" d="M995.3,868.1l-4.9-7c-.2,0-.5,0-.9,0h-5.4v7h-4.5v-24.1h9.9c2.1,0,3.9.3,5.5,1s2.7,1.7,3.6,3c.8,1.3,1.2,2.8,1.2,4.6s-.4,3.4-1.3,4.7c-.9,1.3-2.1,2.3-3.8,2.9l5.5,7.9h-4.8ZM993.6,849c-1-.8-2.5-1.2-4.4-1.2h-5.2v9.6h5.2c1.9,0,3.4-.4,4.4-1.3,1-.8,1.5-2,1.5-3.6s-.5-2.7-1.5-3.5Z"/>
          <path class="cls-3" d="M1014.4,866.8c-2-1.1-3.5-2.5-4.6-4.4-1.1-1.9-1.7-4-1.7-6.3s.6-4.5,1.7-6.3c1.1-1.9,2.7-3.4,4.6-4.4,2-1.1,4.2-1.6,6.6-1.6s4.7.5,6.6,1.6c2,1.1,3.5,2.5,4.6,4.4,1.1,1.9,1.7,4,1.7,6.4s-.6,4.5-1.7,6.4c-1.1,1.9-2.7,3.4-4.6,4.4-2,1.1-4.2,1.6-6.6,1.6s-4.7-.5-6.6-1.6ZM1025.4,863.4c1.3-.7,2.3-1.7,3-3s1.1-2.7,1.1-4.3-.4-3.1-1.1-4.3c-.7-1.3-1.7-2.3-3-3-1.3-.7-2.7-1.1-4.3-1.1s-3,.4-4.3,1.1c-1.3.7-2.3,1.7-3,3-.7,1.3-1.1,2.7-1.1,4.3s.4,3.1,1.1,4.3,1.7,2.3,3,3c1.3.7,2.7,1.1,4.3,1.1s3-.4,4.3-1.1Z"/>
          <path class="cls-3" d="M1059.3,845c1.5.7,2.7,1.7,3.6,3,.8,1.3,1.2,2.8,1.2,4.6s-.4,3.3-1.2,4.6c-.8,1.3-2,2.3-3.6,3s-3.4,1-5.5,1h-5.4v6.9h-4.5v-24.1h9.9c2.1,0,3.9.3,5.5,1ZM1058,856.1c1-.8,1.5-2,1.5-3.5s-.5-2.7-1.5-3.5-2.5-1.2-4.4-1.2h-5.2v9.6h5.2c1.9,0,3.4-.4,4.4-1.2Z"/>
          <path class="cls-3" d="M1078.6,866.8c-2-1.1-3.5-2.5-4.6-4.4-1.1-1.9-1.7-4-1.7-6.3s.6-4.5,1.7-6.3c1.1-1.9,2.7-3.4,4.6-4.4,2-1.1,4.2-1.6,6.6-1.6s4.7.5,6.6,1.6c2,1.1,3.5,2.5,4.6,4.4,1.1,1.9,1.7,4,1.7,6.4s-.6,4.5-1.7,6.4c-1.1,1.9-2.7,3.4-4.6,4.4-2,1.1-4.2,1.6-6.6,1.6s-4.7-.5-6.6-1.6ZM1089.6,863.4c1.3-.7,2.3-1.7,3-3s1.1-2.7,1.1-4.3-.4-3.1-1.1-4.3c-.7-1.3-1.7-2.3-3-3-1.3-.7-2.7-1.1-4.3-1.1s-3,.4-4.3,1.1c-1.3.7-2.3,1.7-3,3-.7,1.3-1.1,2.7-1.1,4.3s.4,3.1,1.1,4.3,1.7,2.3,3,3c1.3.7,2.7,1.1,4.3,1.1s3-.4,4.3-1.1Z"/>
          <path class="cls-3" d="M1129.5,844v24.1h-3.7l-13.3-16.3v16.3h-4.4v-24.1h3.7l13.3,16.3v-16.3h4.4Z"/>
          <path class="cls-3" d="M1159.2,864.3v3.7h-18.1v-24.1h17.6v3.7h-13.1v6.3h11.6v3.7h-11.6v6.6h13.6Z"/>
        </g>
        <circle class="cls-4" cx="550.3" cy="856" r="12.4"/>
        <circle class="cls-4" cx="912" cy="856" r="12.4"/>
      </g>
    </g>
  </g>
</svg>