<?xml version="1.0" encoding="UTF-8"?>
<svg xmlns="http://www.w3.org/2000/svg" version="1.1" viewBox="0 0 1440 1024">
  <defs>
    <style>
      .cls-1 {
        fill: #077efb;
      }

      .cls-2 {
        fill: #071538;
      }
    </style>
  </defs>
  <!-- Generator: Adobe Illustrator 28.6.0, SVG Export Plug-In . SVG Version: 1.2.0 Build 709)  -->
  <g>
    <g id="Layer_1">
      <g>
        <path class="cls-1" d="M764.1,137.9c48.8-15,97.4-8.9,144.7,6.8,107.7,35.6,180.7,135.6,176.5,249.2-.4,10.4,2.5,18.9,7.7,27.7,16,26.8,31.5,53.9,46.6,81.4,12.3,22.2,4.4,43.8-19.1,53.2-6.3,2.5-13.3,3.8-20,4.4-13,1.2-13,.9-13,14.2v93.8c0,38.3-25.1,63.8-63.4,64.2-18.4.3-36.9,0-55.3.4-12.7.4-19.2,7.5-19.3,20.1-.2,21.7,0,43.5,0,65.2,0,4.6-.3,9.3-1.3,13.7-6.8,26.9-32.3,41.9-62.5,35.6-17-3.5-33.7-8.7-50.1-14.5-45.3-16.3-84.3-43.9-123.1-71.7-6-4.3-11.1-9.8-17.6-15.6,12-9.6,23.1-17.8,33.4-26.8,29-25.2,53.6-54.4,74.2-86.7,34.1-53.4,55.5-111.2,55.9-175.4.4-85.7-30.4-160.7-82.2-227.6-18.8-24.3-40.8-45.5-68.4-60.2-5.4-2.9-10.5-6.5-17.2-10.8,23-19.5,47.4-32.3,73.8-40.5h-.3ZM800.6,799.5c28.6,16.5,58.8,29.5,91.5,35.8,16.3,3.2,23.8-3.2,23.9-19.5,0-21.4,0-42.8.3-64.2.5-29.7,21.3-50.9,51-51.7,18.4-.5,36.9-.3,55.4-.4,20.9-.2,31.4-10.9,31.4-31.9v-105.7c0-22.8,9-32,32-33.4,5.3-.4,10.5-.7,15.7-1.6,9.2-1.5,10.6-4.2,6-12.5-14.7-26.1-28.9-52.4-44.7-77.8-8.3-13.5-11.6-27-11.3-42.8,1.4-78.1-29.8-140.7-93.1-186.1-51-36.5-108.5-49.2-170.4-40.5-11.1,1.6-21.7,6.5-33.5,10.2,86.4,81.5,136.5,178.4,137.1,296.4.5,119.1-57.5,211.9-142.2,293,17.7,11.2,34,22.7,51.3,32.6h0Z"/>
        <path class="cls-2" d="M745,332.4h-73.2c-4.9,0-8.9,4-8.9,8.9s4,8.9,8.9,8.9h73.2c4.9,0,8.9-4,8.9-8.9s-4-8.9-8.9-8.9Z"/>
        <path class="cls-2" d="M751.8,354.1c7.6,0,13.8-6.2,13.8-13.8s-6.2-13.8-13.8-13.8-13.8,6.2-13.8,13.8,6.2,13.8,13.8,13.8Z"/>
        <path class="cls-2" d="M721.3,429.3h-73.2c-4.9,0-8.9,4-8.9,8.9s4,8.9,8.9,8.9h73.2c4.9,0,8.9-4,8.9-8.9s-4-8.9-8.9-8.9Z"/>
        <path class="cls-2" d="M722.2,451c7.6,0,13.8-6.2,13.8-13.8s-6.2-13.8-13.8-13.8-13.8,6.2-13.8,13.8,6.2,13.8,13.8,13.8Z"/>
        <path class="cls-2" d="M717.3,622.9h-33.6c-4.9,0-8.9,4-8.9,8.9s4,8.9,8.9,8.9h33.6c4.9,0,8.9-4,8.9-8.9s-4-8.9-8.9-8.9Z"/>
        <path class="cls-2" d="M726.2,644.6c7.6,0,13.8-6.2,13.8-13.8s-6.2-13.8-13.8-13.8-13.8,6.2-13.8,13.8,6.2,13.8,13.8,13.8Z"/>
        <path class="cls-2" d="M731.1,526.1h-81c-4.9,0-8.9,4-8.9,8.9s4,8.9,8.9,8.9h81c4.9,0,8.9-4,8.9-8.9s-4-8.9-8.9-8.9Z"/>
        <path class="cls-1" d="M730.1,526.1h56.1c.6,0,1.1.5,1.1,1.1v15.5c0,.6-.5,1.1-1.1,1.1h-56.1v-17.7Z"/>
        <path class="cls-1" d="M785.4,547.8c7.6,0,13.8-6.2,13.8-13.8s-6.2-13.8-13.8-13.8-13.8,6.2-13.8,13.8,6.2,13.8,13.8,13.8Z"/>
        <path class="cls-2" d="M744.9,575.5h-81c-4.9,0-8.9,4-8.9,8.9s4,8.9,8.9,8.9h81c4.9,0,8.9-4,8.9-8.9s-4-8.9-8.9-8.9Z"/>
        <path class="cls-1" d="M730.1,575.5h69.9c.6,0,1.1.5,1.1,1.1v15.5c0,.6-.5,1.1-1.1,1.1h-69.9v-17.7Z"/>
        <path class="cls-1" d="M799.3,597.2c7.6,0,13.8-6.2,13.8-13.8s-6.2-13.8-13.8-13.8-13.8,6.2-13.8,13.8,6.2,13.8,13.8,13.8Z"/>
        <path class="cls-2" d="M729.1,478.6h-81c-4.9,0-8.9,4-8.9,8.9s4,8.9,8.9,8.9h81c4.9,0,8.9-4,8.9-8.9s-4-8.9-8.9-8.9Z"/>
        <path class="cls-1" d="M716.2,478.6h99.6c.6,0,1.1.5,1.1,1.1v15.5c0,.6-.5,1.1-1.1,1.1h-99.6v-17.7Z"/>
        <path class="cls-1" d="M817,500.3c7.6,0,13.8-6.2,13.8-13.8s-6.2-13.8-13.8-13.8-13.8,6.2-13.8,13.8,6.2,13.8,13.8,13.8Z"/>
        <path class="cls-2" d="M739,381.8h-81c-4.9,0-8.9,4-8.9,8.9s4,8.9,8.9,8.9h81c4.9,0,8.9-4,8.9-8.9s-4-8.9-8.9-8.9Z"/>
        <path class="cls-1" d="M726.2,381.8h72c.6,0,1.1.5,1.1,1.1v15.5c0,.6-.5,1.1-1.1,1.1h-72v-17.7Z"/>
        <path class="cls-1" d="M797.2,403.5c7.6,0,13.8-6.2,13.8-13.8s-6.2-13.8-13.8-13.8-13.8,6.2-13.8,13.8,6.2,13.8,13.8,13.8Z"/>
        <path class="cls-2" d="M756.9,179.5c-6.8,4.3-11.8,8-17.2,10.8-27.6,14.7-49.5,35.8-68.4,60.2-51.8,66.9-82.6,141.9-82.2,227.6.3,64.1,21.8,121.9,55.9,175.4,20.6,32.3,45.2,61.5,74.2,86.7,10.4,9,21.3,17.1,33.4,26.8-6.5,5.8-11.6,11.3-17.6,15.6-38.8,27.7-77.8,55.3-123.1,71.7-16.3,5.9-33.1,11-50.1,14.5-30.2,6.3-55.7-8.7-62.5-35.6-1.1-4.4-1.3-9.1-1.3-13.7-.2-21.7,0-43.5,0-65.2,0-12.7-6.7-19.8-19.3-20.1-18.4-.5-36.9-.2-55.3-.4-38.4-.4-63.4-25.9-63.4-64.2v-93.8c0-13.4,0-13-13-14.2-6.8-.6-13.8-1.9-20-4.4-23.5-9.4-31.4-30.9-19.1-53.2,15-27.3,30.5-54.6,46.6-81.4,5.3-8.8,8.2-17.3,7.7-27.7-4.2-113.6,68.8-213.7,176.5-249.2,47.2-15.6,95.9-21.8,144.7-6.8,26.4,8.2,50.9,21,73.8,40.5h-.3ZM697.9,767.9c-84.7-81.1-142.8-173.9-142.2-293,.5-118,50.6-215,137.1-296.4-11.8-3.7-22.4-8.6-33.5-10.2-61.9-8.7-119.6,4-170.4,40.5-63.3,45.4-94.5,108.1-93.1,186.1.3,15.7-3,29.3-11.3,42.8-15.7,25.4-30,51.8-44.7,77.8-4.7,8.3-3.3,11,6,12.5,5.2.9,10.5,1.2,15.7,1.6,23,1.4,32,10.7,32,33.4v105.7c0,21,10.5,31.6,31.4,31.9,18.4.2,36.9,0,55.3.4,29.7.8,50.5,22,51,51.7.4,21.4.2,42.8.3,64.2,0,16.3,7.6,22.7,23.9,19.5,32.7-6.3,62.8-19.4,91.5-35.8,17.2-9.9,33.6-21.3,51.3-32.6h0Z"/>
      </g>
    </g>
  </g>
</svg>